<svg xmlns="http://www.w3.org/2000/svg" width="256" height="256" viewBox="0 0 100 100"><rect width="100" height="100" rx="20" fill="#3b3a3d"></rect><path d="M45.88 78.88L29.38 78.88L29.38 70.63L37.63 70.63L37.63 62.38L45.88 62.38L45.88 54.13L54.13 54.13L54.13 45.88L45.88 45.88L45.88 37.63L37.63 37.63L37.63 29.38L29.38 29.38L29.38 21.13L45.88 21.13L45.88 29.38L54.13 29.38L54.13 37.63L62.38 37.63L62.38 45.88L70.63 45.88L70.63 54.13L62.38 54.13L62.38 62.38L54.13 62.38L54.13 70.63L45.88 70.63L45.88 78.88Z" fill="#d883eb"></path></svg>