<svg width="451" height="493" viewBox="0 0 451 493" fill="none" xmlns="http://www.w3.org/2000/svg">
<g opacity="0.75" filter="url(#filter0_d_201_733)">
<path d="M0.695312 438.382C0.695312 444.269 3.28917 449.858 7.78571 453.658L25.0831 468.276C28.6929 471.327 33.2665 473 37.9927 473H391.126C395.596 473 399.937 471.503 403.456 468.748L422.712 453.671C427.553 449.88 430.382 444.073 430.382 437.924V26.1099C430.382 22.5019 429.406 18.9611 427.557 15.8626L424.304 10.4109C420.696 4.36262 414.172 0.658203 407.129 0.658203H308.406C301.482 0.658203 295.13 4.49768 291.911 10.6276C288.693 16.7575 282.341 20.597 275.417 20.597H20.6953C9.64964 20.597 0.695312 29.5513 0.695312 40.597V438.382Z" fill="#D93B48"/>
</g>
<path opacity="0.75" d="M24.4922 420.015C24.4922 425.736 26.9425 431.184 31.2234 434.979L45.9363 448.025C49.595 451.269 54.3153 453.06 59.2051 453.06H383.69C388.566 453.06 393.274 451.279 396.929 448.052L411.729 434.982C416.028 431.186 418.49 425.726 418.49 419.991V44.6412C418.49 41.2747 417.641 37.9626 416.02 35.0119L414.175 31.6539C410.662 25.2579 403.943 21.2832 396.646 21.2832H316.476C310.286 21.2832 304.642 24.8238 301.948 30.3964C299.255 35.969 293.61 39.5096 287.421 39.5096H44.4922C33.4465 39.5096 24.4922 48.4639 24.4922 59.5096V420.015Z" fill="#D93B48"/>
<path d="M24.6797 71.9395H418.678" stroke="#E05E55" stroke-width="11"/>
<path d="M59.9844 71.9378L59.9844 39.2949" stroke="#E05E55" stroke-width="11"/>
<path d="M81.3047 71.9378L81.3047 39.2949" stroke="#E05E55" stroke-width="11"/>
<path d="M156.586 73.9363L156.586 39.2949" stroke="#E05E55" stroke-width="11"/>
<path d="M40 71.9378L40 39.2949" stroke="#E05E55" stroke-width="11"/>
<rect opacity="0.35" x="377.086" y="31.9688" width="26.6472" height="26.6472" rx="5" fill="#D93B48"/>
<rect x="40" y="207.174" width="363.735" height="233.163" rx="50" fill="#E05E55"/>
<rect x="40" y="147.219" width="363.735" height="43.9679" rx="21.984" fill="#E05E55"/>
<rect x="191.227" y="99.2539" width="27.9796" height="27.9796" rx="13.9898" fill="#E05E55"/>
<rect x="245.188" y="99.2539" width="27.9796" height="27.9796" rx="13.9898" fill="#E05E55"/>
<rect x="298.477" y="99.2539" width="27.9796" height="27.9796" rx="13.9898" fill="#E05E55"/>
<rect x="352.438" y="98.5859" width="27.9796" height="27.9796" rx="13.9898" fill="#E05E55"/>
<path d="M54 112V110.5H58.5V112H54ZM52.5 116.5V112H54V116.5H52.5ZM57 116.5V115H55.5V113.5H58.5V116.5H57ZM54 118V116.5H57V118H54ZM63.3 118V110.5H64.8V116.5H67.8V118H63.3ZM72.6 118V110.5H74.1V118H72.6ZM80.4 118V112H78.9V110.5H83.4V112H81.9V118H80.4ZM92.7 113.5V112H89.7V110.5H92.7V112H94.2V113.5H92.7ZM89.7 118V116.5H88.2V112H89.7V116.5H92.7V118H89.7ZM92.7 116.5V115H94.2V116.5H92.7ZM99 118V110.5H100.5V113.5H103.5V110.5H105V118H103.5V115H100.5V118H99ZM109.8 119.5V118H115.8V119.5H109.8ZM122.1 118V112H120.6V110.5H125.1V112H123.6V118H122.1ZM132.9 118V113.5H131.4V112H129.9V110.5H131.4V112H132.9V113.5H134.4V118H132.9ZM135.9 112V110.5H137.4V112H135.9ZM134.4 113.5V112H135.9V113.5H134.4ZM142.2 118V110.5H146.7V112H148.2V113.5H146.7V115H143.7V118H142.2ZM143.7 113.5H146.64V112H143.7V113.5ZM153 118V110.5H157.5V112H154.5V113.5H157.5V115H154.5V116.5H157.5V118H153ZM162.3 113.5V112H163.8V113.5H162.3ZM162.3 116.5V115H163.8V116.5H162.3Z" fill="white"/>
<path d="M64.1484 237.494V229.994H68.6484V231.494H70.1484V235.994H68.6484V237.494H64.1484ZM65.6484 235.994H68.5884V231.494H65.6484V235.994ZM74.9484 237.494V229.994H79.4484V231.494H76.4484V232.994H79.4484V234.494H76.4484V235.994H79.4484V237.494H74.9484ZM85.7484 231.494V229.994H90.2484V231.494H85.7484ZM88.7484 235.994V234.494H85.7484V232.994H84.2484V231.494H85.7484V232.994H88.7484V234.494H90.2484V235.994H88.7484ZM84.2484 237.494V235.994H88.7484V237.494H84.2484ZM99.5484 232.994V231.494H96.5484V229.994H99.5484V231.494H101.048V232.994H99.5484ZM96.5484 237.494V235.994H95.0484V231.494H96.5484V235.994H99.5484V237.494H96.5484ZM99.5484 235.994V234.494H101.048V235.994H99.5484ZM105.848 237.494V229.994H110.348V231.494H111.848V232.994H110.348V235.994H111.848V237.494H110.348V235.994H108.848V234.494H107.348V237.494H105.848ZM107.348 232.994H110.288V231.494H107.348V232.994ZM116.648 237.494V229.994H118.148V237.494H116.648ZM122.948 237.494V229.994H127.448V231.494H128.948V232.994H127.448V234.494H124.448V237.494H122.948ZM124.448 232.994H127.388V231.494H124.448V232.994ZM135.248 237.494V231.494H133.748V229.994H138.248V231.494H136.748V237.494H135.248ZM143.048 237.494V229.994H144.548V237.494H143.048ZM150.848 237.494V235.994H149.348V231.494H150.848V229.994H153.848V231.494H155.348V235.994H153.848V237.494H150.848ZM150.848 235.934H153.848V231.554H150.848V235.934ZM160.148 237.494V229.994H161.648V231.494H163.148V232.994H164.648V234.494H166.148V229.994H167.648V237.494H166.148V235.994H164.648V234.494H163.148V232.994H161.648V237.494H160.148ZM172.448 232.994V231.494H173.948V232.994H172.448ZM172.448 235.994V234.494H173.948V235.994H172.448Z" fill="white"/>
<path d="M66 174V168H64.5V166.5H69V168H67.5V174H66ZM73.8 174V166.5H75.3V174H73.8ZM81.6 174V168H80.1V166.5H84.6V168H83.1V174H81.6ZM89.4 174V166.5H90.9V172.5H93.9V174H89.4ZM98.7 174V166.5H103.2V168H100.2V169.5H103.2V171H100.2V172.5H103.2V174H98.7ZM108 169.5V168H109.5V169.5H108ZM108 172.5V171H109.5V172.5H108Z" fill="white"/>
<path d="M40 251.475H403.735" stroke="#D93030" stroke-width="5"/>
<defs>
<filter id="filter0_d_201_733" x="0.695312" y="0.658203" width="449.688" height="492.342" filterUnits="userSpaceOnUse" color-interpolation-filters="sRGB">
<feFlood flood-opacity="0" result="BackgroundImageFix"/>
<feColorMatrix in="SourceAlpha" type="matrix" values="0 0 0 0 0 0 0 0 0 0 0 0 0 0 0 0 0 0 127 0" result="hardAlpha"/>
<feOffset dx="20" dy="20"/>
<feComposite in2="hardAlpha" operator="out"/>
<feColorMatrix type="matrix" values="0 0 0 0 0.515385 0 0 0 0 0.0688831 0 0 0 0 0.0688831 0 0 0 1 0"/>
<feBlend mode="normal" in2="BackgroundImageFix" result="effect1_dropShadow_201_733"/>
<feBlend mode="normal" in="SourceGraphic" in2="effect1_dropShadow_201_733" result="shape"/>
</filter>
</defs>
</svg>
