<svg width="436" height="497" viewBox="0 0 436 497" fill="none" xmlns="http://www.w3.org/2000/svg">
<g opacity="0.75" filter="url(#filter0_d_200_816)">
<path d="M0 442.201C0 447.945 2.46952 453.411 6.77949 457.208L23.346 471.802C26.9984 475.02 31.6989 476.795 36.5665 476.795H377.418C382.027 476.795 386.494 475.204 390.064 472.29L408.506 457.238C413.16 453.44 415.86 447.751 415.86 441.743V25.7075C415.86 22.2221 414.949 18.7973 413.218 15.7724L410.108 10.3384C406.545 4.11378 399.922 0.273438 392.75 0.273438H298.173C291.268 0.273438 284.952 4.16405 281.845 10.331C278.739 16.498 272.423 20.3886 265.518 20.3886H20C8.95432 20.3886 0 29.3429 0 40.3886V442.201Z" fill="#0D8BD9"/>
</g>
<rect x="105.25" y="90.9004" width="267.495" height="52.622" fill="white"/>
<rect x="105.25" y="151.562" width="267.495" height="52.622" fill="white"/>
<rect x="105.25" y="212.225" width="267.495" height="52.622" fill="white"/>
<rect x="105.25" y="272.887" width="267.495" height="52.622" fill="white"/>
<rect x="105.25" y="333.547" width="267.495" height="52.622" fill="white"/>
<rect x="105.25" y="394.209" width="267.495" height="52.622" fill="white"/>
<path opacity="0.75" d="M23.0312 423.671C23.0312 429.248 25.3603 434.572 29.4563 438.358L43.5336 451.369C47.2291 454.785 52.0764 456.682 57.1086 456.682H370.191C375.209 456.682 380.044 454.795 383.736 451.396L397.897 438.361C402.011 434.574 404.352 429.238 404.352 423.646V44.419C404.352 41.1697 403.56 37.9694 402.045 35.0948L400.288 31.7598C396.827 25.1939 390.016 21.084 382.594 21.084H305.957C299.778 21.084 294.16 24.6714 291.56 30.2778C288.96 35.8843 283.342 39.4717 277.162 39.4717H43.0312C31.9855 39.4717 23.0312 48.426 23.0312 59.4717V423.671Z" fill="#0968A3"/>
<path d="M23.2031 72.1875H404.523" stroke="#47A5E0" stroke-width="11"/>
<path d="M57.3906 72.1875L57.3906 39.2559" stroke="#47A5E0" stroke-width="11"/>
<path d="M78.0078 72.1875L78.0078 39.2559" stroke="#47A5E0" stroke-width="11"/>
<path d="M150.875 74.2038L150.875 39.2559" stroke="#47A5E0" stroke-width="11"/>
<path d="M38.0312 72.1875L38.0312 39.2559" stroke="#47A5E0" stroke-width="11"/>
<rect opacity="0.35" x="301.844" y="31.7031" width="88.4342" height="27.0419" rx="5" fill="#0D8BD9"/>
<path d="M337.991 122.055L345.505 114.541L344.013 113.049L337.991 119.071L334.953 116.033L333.461 117.526L337.991 122.055ZM332.022 127.171C331.436 127.171 330.934 126.963 330.517 126.545C330.099 126.128 329.891 125.626 329.891 125.04V110.118C329.891 109.532 330.099 109.03 330.517 108.613C330.934 108.195 331.436 107.986 332.022 107.986H346.944C347.53 107.986 348.032 108.195 348.45 108.613C348.867 109.03 349.076 109.532 349.076 110.118V125.04C349.076 125.626 348.867 126.128 348.45 126.545C348.032 126.963 347.53 127.171 346.944 127.171H332.022Z" fill="white"/>
<path d="M332.022 187.83C331.436 187.83 330.934 187.621 330.517 187.203C330.099 186.786 329.891 186.284 329.891 185.698V170.776C329.891 170.19 330.099 169.688 330.517 169.271C330.934 168.853 331.436 168.645 332.022 168.645H346.944C347.53 168.645 348.032 168.853 348.45 169.271C348.867 169.688 349.076 170.19 349.076 170.776V185.698C349.076 186.284 348.867 186.786 348.45 187.203C348.032 187.621 347.53 187.83 346.944 187.83H332.022ZM332.022 185.698H346.944V170.776H332.022V185.698Z" fill="white"/>
<path d="M332.022 248.492C331.436 248.492 330.934 248.283 330.517 247.866C330.099 247.448 329.891 246.946 329.891 246.36V231.438C329.891 230.852 330.099 230.35 330.517 229.933C330.934 229.515 331.436 229.307 332.022 229.307H346.944C347.53 229.307 348.032 229.515 348.45 229.933C348.867 230.35 349.076 230.852 349.076 231.438V246.36C349.076 246.946 348.867 247.448 348.45 247.866C348.032 248.283 347.53 248.492 346.944 248.492H332.022ZM332.022 246.36H346.944V231.438H332.022V246.36Z" fill="white"/>
<path d="M337.991 365.075L345.505 357.561L344.013 356.069L337.991 362.091L334.953 359.053L333.461 360.545L337.991 365.075ZM332.022 370.191C331.436 370.191 330.934 369.982 330.517 369.565C330.099 369.147 329.891 368.646 329.891 368.059V353.138C329.891 352.551 330.099 352.049 330.517 351.632C330.934 351.215 331.436 351.006 332.022 351.006H346.944C347.53 351.006 348.032 351.215 348.45 351.632C348.867 352.049 349.076 352.551 349.076 353.138V368.059C349.076 368.646 348.867 369.147 348.45 369.565C348.032 369.982 347.53 370.191 346.944 370.191H332.022Z" fill="white"/>
<path d="M332.022 309.156C331.436 309.156 330.934 308.947 330.517 308.53C330.099 308.112 329.891 307.61 329.891 307.024V292.102C329.891 291.516 330.099 291.014 330.517 290.597C330.934 290.179 331.436 289.971 332.022 289.971H346.944C347.53 289.971 348.032 290.179 348.45 290.597C348.867 291.014 349.076 291.516 349.076 292.102V307.024C349.076 307.61 348.867 308.112 348.45 308.53C348.032 308.947 347.53 309.156 346.944 309.156H332.022ZM332.022 307.024H346.944V292.102H332.022V307.024Z" fill="white"/>
<path d="M332.022 430.478C331.436 430.478 330.934 430.269 330.517 429.852C330.099 429.434 329.891 428.933 329.891 428.346V413.425C329.891 412.838 330.099 412.337 330.517 411.919C330.934 411.502 331.436 411.293 332.022 411.293H346.944C347.53 411.293 348.032 411.502 348.45 411.919C348.867 412.337 349.076 412.838 349.076 413.425V428.346C349.076 428.933 348.867 429.434 348.45 429.852C348.032 430.269 347.53 430.478 346.944 430.478H332.022ZM332.022 428.346H346.944V413.425H332.022V428.346Z" fill="white"/>
<g filter="url(#filter1_dd_200_816)">
<path d="M44 72V67H34V62H29V47H34V42H44V47H49V62H44V67H49V72H44ZM34 61.8H44V47.2H34V61.8ZM64.8 67V62H59.8V42H64.8V62H74.8V67H64.8ZM74.8 62V42H79.8V62H74.8ZM90.6 67V42H105.6V47H95.6V52H105.6V57H95.6V62H105.6V67H90.6ZM121.4 47V42H136.4V47H121.4ZM131.4 62V57H121.4V52H116.4V47H121.4V52H131.4V57H136.4V62H131.4ZM116.4 67V62H131.4V67H116.4ZM152.2 67V47H147.2V42H162.2V47H157.2V67H152.2ZM178 47V42H193V47H178ZM188 62V57H178V52H173V47H178V52H188V57H193V62H188ZM173 67V62H188V67H173Z" fill="white"/>
</g>
<g opacity="0.75" filter="url(#filter2_dd_200_816)">
<rect x="57.7422" y="98.2109" width="38.7357" height="38.7357" fill="#D93B48"/>
</g>
<path d="M126 122.46V120.92H127.54V111.68H124.46V110.14H126V108.6H130.62V122.46H132.16V124H124.46V122.46H126ZM132.552 124V119.38H134.092V116.3H132.552V114.76H134.092V113.22H146.412V114.76H147.952V119.38H141.792V120.92H143.332V122.46H144.872V120.92H147.952V124H144.872V125.54H141.792V124H137.172V125.54H135.632V124H132.552ZM138.712 117.84V116.3H141.792V117.84H143.332V116.3H137.172V117.84H138.712ZM137.172 119.38V120.92H138.712V119.38H137.172ZM149.886 124V120.92H152.966V122.46H154.506V120.92H152.966V119.38H149.886V114.76H151.426V113.22H157.586V119.38H159.126V122.46H157.586V124H156.046V125.54H151.426V124H149.886ZM165.12 124V122.46H166.66V116.3H165.12V113.22H166.66V108.6H169.74V122.46H171.28V124H165.12ZM177.267 122.46V114.76H178.807V113.22H184.967V114.76H186.507V117.84H188.047V119.38H181.887V122.46H183.427V120.92H186.507V124H183.427V125.54H181.887V124H178.807V122.46H177.267ZM183.427 117.84V116.3H181.887V117.84H183.427ZM188.448 124V122.46H189.988V116.3H188.448V113.22H197.688V114.76H199.228V122.46H200.768V124H196.148V117.84H194.608V116.3H193.068V122.46H194.608V124H188.448ZM206.768 122.46V120.92H208.308V111.68H205.228V110.14H206.768V108.6H211.388V113.22H216.008V114.76H217.548V124H214.468V125.54H211.388V124H205.228V122.46H206.768ZM214.468 120.92V116.3H211.388V120.92H214.468ZM225.652 122.46V116.3H224.112V122.46H225.652ZM219.492 122.46V114.76H221.032V113.22H228.732V114.76H230.272V122.46H228.732V124H225.652V125.54H224.112V124H221.032V122.46H219.492ZM233.753 125.54V127.08H236.833V124H235.293V125.54H233.753ZM232.213 120.92V119.38H230.673V114.76H232.213V113.22H241.453V116.3H239.913V119.38H238.373V122.46H239.913V124H241.453V127.08H239.913V128.62H230.673V120.92H232.213Z" fill="white"/>
<g opacity="0.75" filter="url(#filter3_dd_200_816)">
<rect x="57.5156" y="279.98" width="38.7357" height="38.7357" fill="url(#paint0_linear_200_816)"/>
</g>
<path d="M126.219 304.286V302.746H127.759V293.506H124.679V291.966H126.219V290.426H130.839V304.286H132.379V305.826H124.679V304.286H126.219ZM138.931 299.666V298.126H137.391V299.666H138.931ZM137.391 301.206V302.746H138.931V301.206H137.391ZM132.771 305.826V301.206H134.311V298.126H132.771V296.586H134.311V295.046H140.471V296.586H142.011V304.286H143.551V305.826H137.391V307.366H135.851V305.826H132.771ZM145.492 304.286V299.666H143.952V296.586H142.412V295.046H156.272V296.586H154.732V299.666H153.192V302.746H151.652V305.826H147.032V304.286H145.492ZM150.112 299.666V296.586H148.572V299.666H150.112ZM160.729 305.826V304.286H162.269V298.126H160.729V295.046H176.129V296.586H177.669V304.286H179.209V305.826H160.729ZM173.049 304.286V298.126H171.509V304.286H173.049ZM166.889 304.286V298.126H165.349V304.286H166.889ZM185.765 299.666V298.126H184.225V299.666H185.765ZM184.225 301.206V302.746H185.765V301.206H184.225ZM179.605 305.826V301.206H181.145V298.126H179.605V296.586H181.145V295.046H187.305V296.586H188.845V304.286H190.385V305.826H184.225V307.366H182.685V305.826H179.605ZM190.787 305.826V296.586H192.327V295.046H196.947V293.506H195.407V290.426H201.567V304.286H203.107V305.826H196.947V307.366H193.867V305.826H190.787ZM196.947 304.286V298.126H195.407V304.286H196.947Z" fill="white"/>
<g opacity="0.75" filter="url(#filter4_dd_200_816)">
<rect x="57.7422" y="158.871" width="38.7357" height="38.7357" fill="#0D8BD9"/>
</g>
<path d="M126.438 184.719V181.639H129.518V183.179H131.058V181.639H129.518V180.099H126.438V175.479H127.978V173.939H134.138V180.099H135.678V183.179H134.138V184.719H132.598V186.259H127.978V184.719H126.438ZM137.616 186.259V177.019H136.076V175.479H134.536V173.939H145.316V175.479H146.856V184.719H143.776V186.259H140.696V187.799H142.236V189.339H134.536V187.799H136.076V186.259H137.616ZM143.776 181.639V177.019H140.696V181.639H143.776ZM148.8 184.719V183.179H150.34V177.019H148.8V173.939H150.34V169.319H153.42V183.179H154.96V184.719H148.8ZM155.352 184.719V181.639H158.432V183.179H159.972V181.639H158.432V180.099H155.352V175.479H156.892V173.939H163.052V180.099H164.592V183.179H163.052V184.719H161.512V186.259H156.892V184.719H155.352ZM170.586 184.719V183.179H172.126V177.019H170.586V173.939H172.126V170.859H173.666V169.319H178.286V170.859H179.826V173.939H178.286V177.019H175.206V183.179H178.286V184.719H170.586ZM176.746 173.939V172.399H175.206V173.939H176.746ZM178.681 184.719V183.179H180.221V177.019H178.681V173.939H187.921V177.019H186.381V178.559H183.301V183.179H186.381V184.719H178.681ZM189.86 184.719V177.019H188.32V173.939H199.1V183.179H200.64V184.719H194.48V186.259H191.4V184.719H189.86ZM194.48 183.179V175.479H192.94V183.179H194.48ZM204.124 186.259V187.799H207.204V184.719H205.664V186.259H204.124ZM202.584 181.639V180.099H201.044V175.479H202.584V173.939H211.824V177.019H210.284V180.099H208.744V183.179H210.284V184.719H211.824V187.799H210.284V189.339H201.044V181.639H202.584ZM213.765 184.719V183.179H212.225V173.939H213.765V172.399H216.845V173.939H219.925V177.019H216.845V183.179H219.925V184.719H218.385V186.259H215.305V184.719H213.765Z" fill="white"/>
<g opacity="0.75" filter="url(#filter5_dd_200_816)">
<rect x="57.5156" y="340.641" width="38.7357" height="38.7357" fill="#0D8BD9"/>
</g>
<path d="M129.299 368.028V369.568H132.379V366.488H130.839V368.028H129.299ZM127.759 363.408V361.868H126.219V357.248H127.759V355.708H136.999V358.788H135.459V361.868H133.919V364.948H135.459V366.488H136.999V369.568H135.459V371.108H126.219V363.408H127.759ZM142.02 361.868V363.408H143.56V361.868H142.02ZM143.56 360.328V358.788H142.02V360.328H143.56ZM137.4 366.488V361.868H138.94V358.788H137.4V357.248H138.94V351.088H145.1V352.628H146.64V354.168H145.1V357.248H146.64V364.948H148.18V366.488H142.02V368.028H140.48V366.488H137.4ZM154.177 364.948V357.248H155.717V355.708H161.877V357.248H163.417V360.328H164.957V361.868H158.797V364.948H160.337V363.408H163.417V366.488H160.337V368.028H158.797V366.488H155.717V364.948H154.177ZM160.337 360.328V358.788H158.797V360.328H160.337ZM165.358 366.488V364.948H166.898V358.788H165.358V355.708H174.598V357.248H176.138V364.948H177.678V366.488H173.058V360.328H171.518V358.788H169.978V364.948H171.518V366.488H165.358ZM185.217 366.488V364.948H183.677V355.708H185.217V354.168H188.297V355.708H191.377V358.788H188.297V364.948H191.377V366.488H189.837V368.028H186.757V366.488H185.217ZM193.313 366.488V358.788H191.773V355.708H202.553V364.948H204.093V366.488H197.933V368.028H194.853V366.488H193.313ZM197.933 364.948V357.248H196.393V364.948H197.933ZM204.497 366.488V364.948H206.037V358.788H204.497V355.708H213.737V358.788H212.197V360.328H209.117V364.948H212.197V366.488H204.497Z" fill="white"/>
<g opacity="0.75" filter="url(#filter6_dd_200_816)">
<rect x="57.7422" y="219.533" width="38.7357" height="38.7357" fill="#3EC9A3"/>
</g>
<path d="M126.438 245.379V243.839H127.978V237.679H126.438V234.599H141.838V236.139H143.378V243.839H144.918V245.379H126.438ZM138.758 243.839V237.679H137.218V243.839H138.758ZM132.598 243.839V237.679H131.058V243.839H132.598ZM145.314 243.839V236.139H146.854V234.599H153.014V236.139H154.554V239.219H156.094V240.759H149.934V243.839H151.474V242.299H154.554V245.379H151.474V246.919H149.934V245.379H146.854V243.839H145.314ZM151.474 239.219V237.679H149.934V239.219H151.474ZM156.495 245.379V236.139H158.035V234.599H162.655V233.059H161.115V229.979H167.275V243.839H168.815V245.379H162.655V246.919H159.575V245.379H156.495ZM162.655 243.839V237.679H161.115V243.839H162.655ZM169.22 245.379V243.839H170.76V237.679H169.22V234.599H170.76V229.979H173.84V243.839H175.38V245.379H169.22ZM177.312 245.379V243.839H175.772V234.599H177.312V233.059H180.392V234.599H183.472V237.679H180.392V243.839H183.472V245.379H181.932V246.919H178.852V245.379H177.312ZM183.867 243.839V236.139H185.407V234.599H186.947V233.059H188.487V229.979H193.107V233.059H191.567V236.139H193.107V239.219H194.647V240.759H188.487V243.839H190.027V242.299H193.107V245.379H190.027V246.919H188.487V245.379H185.407V243.839H183.867ZM190.027 239.219V237.679H188.487V239.219H190.027ZM195.048 245.379V243.839H196.588V237.679H195.048V234.599H204.288V237.679H202.748V239.219H199.668V243.839H202.748V245.379H195.048Z" fill="white"/>
<g opacity="0.75" filter="url(#filter7_dd_200_816)">
<rect x="57.5156" y="401.303" width="38.7357" height="38.7357" fill="#3EC9A3"/>
</g>
<path d="M132.379 425.608V419.448H130.839V425.608H132.379ZM126.219 425.608V424.068H127.759V414.828H124.679V413.288H126.219V411.748H130.839V416.368H135.459V417.908H136.999V425.608H138.539V427.148H124.679V425.608H126.219ZM140.483 427.148V425.608H138.943V417.908H140.483V416.368H149.723V425.608H148.183V427.148H145.103V428.688H138.943V427.148H140.483ZM150.124 427.148V425.608H151.664V419.448H150.124V416.368H159.364V419.448H157.824V420.988H154.744V425.608H157.824V427.148H150.124ZM165.358 427.148V425.608H166.898V419.448H165.358V416.368H180.758V417.908H182.298V425.608H183.838V427.148H165.358ZM177.678 425.608V419.448H176.138V425.608H177.678ZM171.518 425.608V419.448H169.978V425.608H171.518ZM185.774 427.148V419.448H184.234V416.368H195.014V425.608H196.554V427.148H190.394V428.688H187.314V427.148H185.774ZM190.394 425.608V417.908H188.854V425.608H190.394ZM196.959 427.148V424.068H200.039V425.608H201.579V424.068H200.039V422.528H196.959V417.908H198.499V416.368H204.659V422.528H206.199V425.608H204.659V427.148H203.119V428.688H198.499V427.148H196.959ZM206.597 427.148V425.608H208.137V419.448H206.597V416.368H208.137V411.748H211.217V425.608H212.757V427.148H206.597ZM213.149 425.608V424.068H214.689V414.828H211.609V413.288H213.149V411.748H217.769V416.368H223.929V419.448H222.389V420.988H220.849V422.528H222.389V424.068H223.929V425.608H225.469V427.148H211.609V425.608H213.149Z" fill="white"/>
<defs>
<filter id="filter0_d_200_816" x="0" y="0.273438" width="435.859" height="496.521" filterUnits="userSpaceOnUse" color-interpolation-filters="sRGB">
<feFlood flood-opacity="0" result="BackgroundImageFix"/>
<feColorMatrix in="SourceAlpha" type="matrix" values="0 0 0 0 0 0 0 0 0 0 0 0 0 0 0 0 0 0 127 0" result="hardAlpha"/>
<feOffset dx="20" dy="20"/>
<feComposite in2="hardAlpha" operator="out"/>
<feColorMatrix type="matrix" values="0 0 0 0 0.0509804 0 0 0 0 0.545098 0 0 0 0 0.85098 0 0 0 0.39 0"/>
<feBlend mode="normal" in2="BackgroundImageFix" result="effect1_dropShadow_200_816"/>
<feBlend mode="normal" in="SourceGraphic" in2="effect1_dropShadow_200_816" result="shape"/>
</filter>
<filter id="filter1_dd_200_816" x="25" y="40" width="172" height="34" filterUnits="userSpaceOnUse" color-interpolation-filters="sRGB">
<feFlood flood-opacity="0" result="BackgroundImageFix"/>
<feColorMatrix in="SourceAlpha" type="matrix" values="0 0 0 0 0 0 0 0 0 0 0 0 0 0 0 0 0 0 127 0" result="hardAlpha"/>
<feOffset dx="4" dy="-2"/>
<feComposite in2="hardAlpha" operator="out"/>
<feColorMatrix type="matrix" values="0 0 0 0 0.94902 0 0 0 0 0.305882 0 0 0 0 0.117647 0 0 0 0.5 0"/>
<feBlend mode="normal" in2="BackgroundImageFix" result="effect1_dropShadow_200_816"/>
<feColorMatrix in="SourceAlpha" type="matrix" values="0 0 0 0 0 0 0 0 0 0 0 0 0 0 0 0 0 0 127 0" result="hardAlpha"/>
<feOffset dx="-4" dy="2"/>
<feComposite in2="hardAlpha" operator="out"/>
<feColorMatrix type="matrix" values="0 0 0 0 0.968627 0 0 0 0 0.996078 0 0 0 0 0.388235 0 0 0 0.5 0"/>
<feBlend mode="normal" in2="effect1_dropShadow_200_816" result="effect2_dropShadow_200_816"/>
<feBlend mode="normal" in="SourceGraphic" in2="effect2_dropShadow_200_816" result="shape"/>
</filter>
<filter id="filter2_dd_200_816" x="53.7422" y="96.2109" width="46.7344" height="42.7363" filterUnits="userSpaceOnUse" color-interpolation-filters="sRGB">
<feFlood flood-opacity="0" result="BackgroundImageFix"/>
<feColorMatrix in="SourceAlpha" type="matrix" values="0 0 0 0 0 0 0 0 0 0 0 0 0 0 0 0 0 0 127 0" result="hardAlpha"/>
<feOffset dx="4" dy="-2"/>
<feComposite in2="hardAlpha" operator="out"/>
<feColorMatrix type="matrix" values="0 0 0 0 0.94902 0 0 0 0 0.305882 0 0 0 0 0.117647 0 0 0 0.5 0"/>
<feBlend mode="normal" in2="BackgroundImageFix" result="effect1_dropShadow_200_816"/>
<feColorMatrix in="SourceAlpha" type="matrix" values="0 0 0 0 0 0 0 0 0 0 0 0 0 0 0 0 0 0 127 0" result="hardAlpha"/>
<feOffset dx="-4" dy="2"/>
<feComposite in2="hardAlpha" operator="out"/>
<feColorMatrix type="matrix" values="0 0 0 0 0.968627 0 0 0 0 0.996078 0 0 0 0 0.388235 0 0 0 0.5 0"/>
<feBlend mode="normal" in2="effect1_dropShadow_200_816" result="effect2_dropShadow_200_816"/>
<feBlend mode="normal" in="SourceGraphic" in2="effect2_dropShadow_200_816" result="shape"/>
</filter>
<filter id="filter3_dd_200_816" x="53.5156" y="277.98" width="46.7344" height="42.7363" filterUnits="userSpaceOnUse" color-interpolation-filters="sRGB">
<feFlood flood-opacity="0" result="BackgroundImageFix"/>
<feColorMatrix in="SourceAlpha" type="matrix" values="0 0 0 0 0 0 0 0 0 0 0 0 0 0 0 0 0 0 127 0" result="hardAlpha"/>
<feOffset dx="4" dy="-2"/>
<feComposite in2="hardAlpha" operator="out"/>
<feColorMatrix type="matrix" values="0 0 0 0 0.94902 0 0 0 0 0.305882 0 0 0 0 0.117647 0 0 0 0.5 0"/>
<feBlend mode="normal" in2="BackgroundImageFix" result="effect1_dropShadow_200_816"/>
<feColorMatrix in="SourceAlpha" type="matrix" values="0 0 0 0 0 0 0 0 0 0 0 0 0 0 0 0 0 0 127 0" result="hardAlpha"/>
<feOffset dx="-4" dy="2"/>
<feComposite in2="hardAlpha" operator="out"/>
<feColorMatrix type="matrix" values="0 0 0 0 0.968627 0 0 0 0 0.996078 0 0 0 0 0.388235 0 0 0 0.5 0"/>
<feBlend mode="normal" in2="effect1_dropShadow_200_816" result="effect2_dropShadow_200_816"/>
<feBlend mode="normal" in="SourceGraphic" in2="effect2_dropShadow_200_816" result="shape"/>
</filter>
<filter id="filter4_dd_200_816" x="53.7422" y="156.871" width="46.7344" height="42.7363" filterUnits="userSpaceOnUse" color-interpolation-filters="sRGB">
<feFlood flood-opacity="0" result="BackgroundImageFix"/>
<feColorMatrix in="SourceAlpha" type="matrix" values="0 0 0 0 0 0 0 0 0 0 0 0 0 0 0 0 0 0 127 0" result="hardAlpha"/>
<feOffset dx="4" dy="-2"/>
<feComposite in2="hardAlpha" operator="out"/>
<feColorMatrix type="matrix" values="0 0 0 0 0.94902 0 0 0 0 0.305882 0 0 0 0 0.117647 0 0 0 0.5 0"/>
<feBlend mode="normal" in2="BackgroundImageFix" result="effect1_dropShadow_200_816"/>
<feColorMatrix in="SourceAlpha" type="matrix" values="0 0 0 0 0 0 0 0 0 0 0 0 0 0 0 0 0 0 127 0" result="hardAlpha"/>
<feOffset dx="-4" dy="2"/>
<feComposite in2="hardAlpha" operator="out"/>
<feColorMatrix type="matrix" values="0 0 0 0 0.968627 0 0 0 0 0.996078 0 0 0 0 0.388235 0 0 0 0.5 0"/>
<feBlend mode="normal" in2="effect1_dropShadow_200_816" result="effect2_dropShadow_200_816"/>
<feBlend mode="normal" in="SourceGraphic" in2="effect2_dropShadow_200_816" result="shape"/>
</filter>
<filter id="filter5_dd_200_816" x="53.5156" y="338.641" width="46.7344" height="42.7363" filterUnits="userSpaceOnUse" color-interpolation-filters="sRGB">
<feFlood flood-opacity="0" result="BackgroundImageFix"/>
<feColorMatrix in="SourceAlpha" type="matrix" values="0 0 0 0 0 0 0 0 0 0 0 0 0 0 0 0 0 0 127 0" result="hardAlpha"/>
<feOffset dx="4" dy="-2"/>
<feComposite in2="hardAlpha" operator="out"/>
<feColorMatrix type="matrix" values="0 0 0 0 0.94902 0 0 0 0 0.305882 0 0 0 0 0.117647 0 0 0 0.5 0"/>
<feBlend mode="normal" in2="BackgroundImageFix" result="effect1_dropShadow_200_816"/>
<feColorMatrix in="SourceAlpha" type="matrix" values="0 0 0 0 0 0 0 0 0 0 0 0 0 0 0 0 0 0 127 0" result="hardAlpha"/>
<feOffset dx="-4" dy="2"/>
<feComposite in2="hardAlpha" operator="out"/>
<feColorMatrix type="matrix" values="0 0 0 0 0.968627 0 0 0 0 0.996078 0 0 0 0 0.388235 0 0 0 0.5 0"/>
<feBlend mode="normal" in2="effect1_dropShadow_200_816" result="effect2_dropShadow_200_816"/>
<feBlend mode="normal" in="SourceGraphic" in2="effect2_dropShadow_200_816" result="shape"/>
</filter>
<filter id="filter6_dd_200_816" x="53.7422" y="217.533" width="46.7344" height="42.7363" filterUnits="userSpaceOnUse" color-interpolation-filters="sRGB">
<feFlood flood-opacity="0" result="BackgroundImageFix"/>
<feColorMatrix in="SourceAlpha" type="matrix" values="0 0 0 0 0 0 0 0 0 0 0 0 0 0 0 0 0 0 127 0" result="hardAlpha"/>
<feOffset dx="4" dy="-2"/>
<feComposite in2="hardAlpha" operator="out"/>
<feColorMatrix type="matrix" values="0 0 0 0 0.94902 0 0 0 0 0.305882 0 0 0 0 0.117647 0 0 0 0.5 0"/>
<feBlend mode="normal" in2="BackgroundImageFix" result="effect1_dropShadow_200_816"/>
<feColorMatrix in="SourceAlpha" type="matrix" values="0 0 0 0 0 0 0 0 0 0 0 0 0 0 0 0 0 0 127 0" result="hardAlpha"/>
<feOffset dx="-4" dy="2"/>
<feComposite in2="hardAlpha" operator="out"/>
<feColorMatrix type="matrix" values="0 0 0 0 0.968627 0 0 0 0 0.996078 0 0 0 0 0.388235 0 0 0 0.5 0"/>
<feBlend mode="normal" in2="effect1_dropShadow_200_816" result="effect2_dropShadow_200_816"/>
<feBlend mode="normal" in="SourceGraphic" in2="effect2_dropShadow_200_816" result="shape"/>
</filter>
<filter id="filter7_dd_200_816" x="53.5156" y="399.303" width="46.7344" height="42.7363" filterUnits="userSpaceOnUse" color-interpolation-filters="sRGB">
<feFlood flood-opacity="0" result="BackgroundImageFix"/>
<feColorMatrix in="SourceAlpha" type="matrix" values="0 0 0 0 0 0 0 0 0 0 0 0 0 0 0 0 0 0 127 0" result="hardAlpha"/>
<feOffset dx="4" dy="-2"/>
<feComposite in2="hardAlpha" operator="out"/>
<feColorMatrix type="matrix" values="0 0 0 0 0.94902 0 0 0 0 0.305882 0 0 0 0 0.117647 0 0 0 0.5 0"/>
<feBlend mode="normal" in2="BackgroundImageFix" result="effect1_dropShadow_200_816"/>
<feColorMatrix in="SourceAlpha" type="matrix" values="0 0 0 0 0 0 0 0 0 0 0 0 0 0 0 0 0 0 127 0" result="hardAlpha"/>
<feOffset dx="-4" dy="2"/>
<feComposite in2="hardAlpha" operator="out"/>
<feColorMatrix type="matrix" values="0 0 0 0 0.968627 0 0 0 0 0.996078 0 0 0 0 0.388235 0 0 0 0.5 0"/>
<feBlend mode="normal" in2="effect1_dropShadow_200_816" result="effect2_dropShadow_200_816"/>
<feBlend mode="normal" in="SourceGraphic" in2="effect2_dropShadow_200_816" result="shape"/>
</filter>
<linearGradient id="paint0_linear_200_816" x1="57.5156" y1="279.98" x2="96.123" y2="318.588" gradientUnits="userSpaceOnUse">
<stop stop-color="#D93B48"/>
<stop offset="0.533654" stop-color="#35B5A7"/>
<stop offset="1" stop-color="#1086CF"/>
</linearGradient>
</defs>
</svg>
